<?xml version="1.0" encoding="utf-8"?>
<!-- Generator: Adobe Illustrator 26.1.0, SVG Export Plug-In . SVG Version: 6.00 Build 0)  -->
<svg version="1.1" id="Capa_1" xmlns="http://www.w3.org/2000/svg" xmlns:xlink="http://www.w3.org/1999/xlink" x="0px" y="0px"
	 viewBox="0 0 27 27" style="enable-background:new 0 0 27 27;" xml:space="preserve">
<style type="text/css">
	.st0{fill:#BEC1BB;}
</style>
<g id="a">
</g>
<g id="b">
	<g id="c">
		<path class="st0" d="M23.6,0.1H3.4C1.5,0.1,0,1.6,0,3.4v15.1c0,1.9,1.5,3.3,3.4,3.3h5.1v4.4c0,0.5,0.6,0.8,1,0.5l6.6-4.9h7.6
			c1.9,0,3.4-1.5,3.4-3.3V3.4C27,1.6,25.5,0.1,23.6,0.1L23.6,0.1z M24.5,18.6c0,0.5-0.4,0.8-0.8,0.8h-8.4L11,22.6v-3.2H3.4
			c-0.5,0-0.8-0.4-0.8-0.8V3.4C2.6,3,3,2.6,3.4,2.6h20.2c0.5,0,0.8,0.4,0.8,0.8V18.6z"/>
	</g>
</g>
</svg>
