<?xml version="1.0" encoding="utf-8"?>
<!-- Generator: Adobe Illustrator 26.1.0, SVG Export Plug-In . SVG Version: 6.00 Build 0)  -->
<svg version="1.1" id="Capa_1" xmlns="http://www.w3.org/2000/svg" xmlns:xlink="http://www.w3.org/1999/xlink" x="0px" y="0px"
	 viewBox="0 0 27 27" style="enable-background:new 0 0 27 27;" xml:space="preserve">
<style type="text/css">
	.st0{fill:#BEC1BB;}
</style>
<g id="a">
</g>
<g id="b">
	<g id="c">
		<path class="st0" d="M25.5,21.7H1.4c-0.7,0-1.4,0.6-1.4,1.4c0,0.9,0.6,1.5,1.4,1.5h24.2c0.8,0,1.5-0.6,1.5-1.4
			C27,22.3,26.4,21.7,25.5,21.7z M25.5,2.4H1.4C0.6,2.4,0,3,0,3.8s0.6,1.5,1.4,1.5h24.2c0.8,0,1.5-0.7,1.5-1.4S26.4,2.4,25.5,2.4z
			 M25.5,12H1.4C0.6,12,0,12.7,0,13.5s0.6,1.4,1.4,1.4h24.2c0.8,0,1.5-0.6,1.5-1.4S26.4,12,25.5,12z"/>
	</g>
</g>
</svg>
